<?xml version="1.0" encoding="UTF-8"?>
<!DOCTYPE svg PUBLIC "-//W3C//DTD SVG 1.1//EN" "http://www.w3.org/Graphics/SVG/1.1/DTD/svg11.dtd">
<!-- Creator: CorelDRAW X7 -->
<svg xmlns="http://www.w3.org/2000/svg" xml:space="preserve" width="297mm" height="210mm" version="1.1" style="shape-rendering:geometricPrecision; text-rendering:geometricPrecision; image-rendering:optimizeQuality; fill-rule:evenodd; clip-rule:evenodd"
viewBox="0 0 29700 21000"
 xmlns:xlink="http://www.w3.org/1999/xlink">
 <defs>
  <style type="text/css">
   <![CDATA[
    .fil0 {fill:#315787;fill-rule:nonzero}
    .fil1 {fill:url(#id0)}
    .fil3 {fill:url(#id1)}
    .fil2 {fill:url(#id2)}
   ]]>
  </style>
  <linearGradient id="id0" gradientUnits="userSpaceOnUse" x1="12724.2" y1="7662.05" x2="16211.7" y2="5442.23">
   <stop offset="0" style="stop-opacity:1; stop-color:#315787"/>
   <stop offset="0.14902" style="stop-opacity:1; stop-color:#315787"/>
   <stop offset="0.639216" style="stop-opacity:1; stop-color:#DA3452"/>
   <stop offset="0.929412" style="stop-opacity:1; stop-color:#DB4B68"/>
   <stop offset="1" style="stop-opacity:1; stop-color:#DB4B68"/>
  </linearGradient>
  <linearGradient id="id1" gradientUnits="userSpaceOnUse" x1="12660.4" y1="7159.45" x2="17059" y2="4112.95">
   <stop offset="0" style="stop-opacity:1; stop-color:#315787"/>
   <stop offset="0.101961" style="stop-opacity:1; stop-color:#315787"/>
   <stop offset="0.54902" style="stop-opacity:1; stop-color:#069879"/>
   <stop offset="1" style="stop-opacity:1; stop-color:#22A88B"/>
  </linearGradient>
  <linearGradient id="id2" gradientUnits="userSpaceOnUse" x1="12863.4" y1="9509.15" x2="15890.1" y2="7651.17">
   <stop offset="0" style="stop-opacity:1; stop-color:#315787"/>
   <stop offset="0.101961" style="stop-opacity:1; stop-color:#315787"/>
   <stop offset="0.580392" style="stop-opacity:1; stop-color:#E6B346"/>
   <stop offset="1" style="stop-opacity:1; stop-color:#FFCE6C"/>
  </linearGradient>
 </defs>
 <g id="Camada_x0020_1">
  <metadata id="CorelCorpID_0Corel-Layer"/>
  <path class="fil0" d="M3718 16687c-45,0 -84,-8 -119,-24 -35,-16 -64,-38 -89,-66 -24,-28 -43,-60 -55,-97 -13,-37 -19,-76 -19,-118 0,-58 11,-114 35,-168 23,-54 54,-101 93,-142 40,-41 86,-74 140,-99 54,-24 111,-37 172,-37 69,0 126,16 169,48 43,32 71,75 85,129l-126 37c-10,-34 -29,-61 -56,-80 -27,-19 -59,-28 -97,-28 -37,0 -73,8 -108,26 -34,17 -65,40 -92,69 -27,29 -48,64 -64,103 -17,40 -25,82 -25,127 0,30 4,59 13,85 8,27 20,49 35,68 15,19 34,34 56,45 21,11 45,17 71,17 20,0 40,-3 61,-9 20,-6 40,-14 58,-24 18,-11 34,-22 49,-36 15,-13 27,-28 35,-44l112 37c-15,26 -35,51 -59,73 -23,22 -50,41 -79,57 -29,16 -60,28 -94,38 -33,9 -67,13 -102,13z"/>
  <path class="fil0" d="M4613 16582c36,0 72,-9 106,-26 34,-18 65,-42 92,-71 27,-30 49,-64 66,-104 17,-39 25,-81 25,-125 0,-31 -4,-59 -12,-85 -9,-26 -21,-48 -36,-67 -15,-19 -34,-34 -55,-46 -22,-11 -46,-16 -72,-16 -35,0 -70,9 -105,26 -34,18 -65,42 -93,72 -27,30 -49,65 -66,105 -16,39 -25,81 -25,125 0,30 4,58 13,84 8,26 20,49 35,68 16,19 34,33 55,44 21,11 45,16 72,16zm-23 105c-45,0 -84,-8 -119,-24 -35,-16 -64,-38 -88,-65 -23,-27 -41,-59 -53,-96 -12,-36 -18,-76 -18,-117 0,-59 12,-115 35,-168 23,-54 54,-102 94,-143 40,-42 86,-75 140,-100 53,-25 109,-38 168,-38 45,0 84,8 119,25 35,16 64,38 88,65 24,27 43,59 55,96 13,37 19,77 19,118 0,58 -12,113 -35,167 -23,54 -55,101 -95,143 -40,42 -87,75 -140,100 -53,25 -110,37 -170,37z"/>
  <path class="fil0" d="M5384 15949l111 0 -33 155c38,-51 85,-91 143,-122 57,-30 116,-46 177,-46 59,0 100,16 123,47 24,31 36,72 36,124 0,20 -2,42 -5,64 -3,22 -7,45 -12,69l-92 434 -122 0 86 -406c9,-40 13,-74 13,-104 0,-79 -33,-118 -99,-118 -23,0 -47,5 -73,15 -25,9 -50,22 -74,39 -24,17 -46,37 -67,60 -20,23 -37,48 -51,76l-93 438 -122 0 154 -725z"/>
  <path class="fil0" d="M6611 16028c-40,0 -75,7 -107,20 -32,14 -60,31 -84,54 -23,22 -43,47 -59,75 -17,28 -29,57 -39,87 28,3 54,5 79,6 24,0 47,1 69,1 52,0 97,-4 132,-10 36,-7 65,-17 87,-30 22,-12 38,-27 48,-44 10,-17 14,-36 14,-56 0,-35 -12,-61 -38,-78 -25,-17 -59,-25 -102,-25zm-146 659c-45,0 -85,-7 -120,-23 -36,-16 -65,-38 -90,-65 -24,-28 -43,-61 -55,-98 -13,-37 -19,-76 -19,-119 0,-58 11,-114 33,-168 22,-54 53,-101 93,-142 40,-42 87,-74 140,-99 54,-24 112,-37 175,-37 72,0 129,17 173,50 44,32 66,81 66,146 0,74 -32,130 -96,167 -65,38 -164,57 -300,57 -22,0 -47,-1 -74,-2 -27,-1 -56,-3 -85,-5 -1,5 -2,11 -2,16l0 16c0,28 4,56 11,82 8,25 19,48 34,68 15,20 33,36 56,47 23,12 49,18 80,18 42,0 84,-11 125,-33 41,-22 73,-51 96,-88l98 29c-16,27 -37,52 -62,74 -25,22 -53,41 -82,57 -30,17 -61,29 -94,39 -33,9 -66,13 -101,13z"/>
  <path class="fil0" d="M7348 16687c-44,0 -84,-8 -118,-24 -35,-16 -65,-38 -89,-66 -25,-28 -43,-60 -56,-97 -12,-37 -18,-76 -18,-118 0,-58 11,-114 34,-168 23,-54 55,-101 94,-142 39,-41 86,-74 140,-99 53,-24 111,-37 172,-37 69,0 125,16 168,48 43,32 72,75 86,129l-127 37c-10,-34 -28,-61 -55,-80 -27,-19 -59,-28 -97,-28 -37,0 -73,8 -108,26 -35,17 -65,40 -92,69 -27,29 -49,64 -65,103 -16,40 -24,82 -24,127 0,30 4,59 12,85 9,27 21,49 36,68 15,19 34,34 55,45 22,11 46,17 72,17 19,0 39,-3 60,-9 21,-6 41,-14 59,-24 18,-11 34,-22 49,-36 15,-13 26,-28 35,-44l112 37c-16,26 -35,51 -59,73 -24,22 -50,41 -79,57 -29,16 -60,28 -94,38 -33,9 -67,13 -103,13z"/>
  <path class="fil0" d="M8109 16683c-38,0 -69,-9 -93,-26 -25,-18 -37,-46 -37,-85 0,-13 1,-26 4,-40l104 -487 -94 0 21 -96 93 0 51 -242 122 0 -51 242 154 0 -21 96 -153 0 -96 449c-1,10 -2,17 -2,21 0,20 6,34 18,43 12,8 27,13 44,13 23,0 45,-4 65,-12 21,-8 35,-14 43,-19l7 97c-16,13 -41,23 -74,32 -33,10 -68,14 -105,14z"/>
  <path class="fil0" d="M8854 16582c20,0 42,-4 65,-13 24,-8 47,-19 70,-34 23,-15 43,-32 62,-52 18,-20 32,-41 41,-63l43 -209c-2,-23 -9,-45 -20,-66 -12,-21 -25,-39 -41,-54 -17,-15 -35,-27 -55,-36 -19,-9 -40,-13 -61,-13 -39,0 -76,9 -110,28 -34,19 -65,44 -91,75 -26,31 -47,66 -62,105 -16,39 -23,78 -23,117 0,29 4,57 12,84 8,26 21,49 37,68 16,20 35,35 58,46 22,11 47,17 75,17zm-53 105c-41,0 -77,-8 -109,-24 -32,-16 -59,-38 -81,-65 -23,-27 -40,-59 -51,-96 -12,-36 -17,-75 -17,-116 0,-58 11,-114 33,-169 22,-54 51,-102 88,-143 37,-42 79,-75 128,-100 48,-25 99,-38 152,-38 55,0 101,15 138,45 36,31 63,68 78,112l32 -144 122 0 -122 575c-1,3 -1,7 -2,9 0,3 0,6 0,9 0,16 10,25 30,26l-22 106c-10,1 -19,3 -27,4 -8,1 -15,1 -22,1 -26,0 -45,-6 -59,-17 -13,-12 -20,-27 -20,-45 0,-15 4,-42 13,-80 -36,48 -80,85 -131,111 -51,26 -101,39 -151,39z"/>
  <path class="fil0" d="M9834 16582c20,0 42,-4 66,-13 23,-8 46,-19 69,-34 23,-15 43,-32 62,-52 18,-20 32,-41 42,-63l43 -209c-3,-23 -10,-45 -21,-66 -11,-21 -25,-39 -41,-54 -16,-15 -34,-27 -54,-36 -20,-9 -41,-13 -62,-13 -39,0 -76,9 -110,28 -34,19 -64,44 -91,75 -26,31 -47,66 -62,105 -15,39 -23,78 -23,117 0,29 4,57 12,84 9,26 21,49 37,68 16,20 36,35 58,46 22,11 47,17 75,17zm-53 105c-41,0 -77,-8 -109,-24 -32,-16 -59,-38 -81,-65 -22,-27 -39,-59 -51,-96 -11,-36 -17,-75 -17,-116 0,-58 11,-114 33,-169 22,-54 52,-102 88,-143 37,-42 79,-75 128,-100 49,-25 99,-38 152,-38 56,0 102,15 138,45 37,31 63,68 79,112l93 -433 122 0 -183 864c-1,3 -2,7 -3,9 0,3 0,6 0,9 0,16 10,25 30,26l-22 106c-10,1 -19,3 -27,4 -8,1 -15,1 -21,1 -26,0 -46,-6 -60,-17 -13,-12 -20,-27 -20,-45 0,-9 1,-19 3,-31 2,-12 5,-28 10,-49 -36,48 -80,85 -131,111 -51,26 -101,39 -151,39z"/>
  <path class="fil0" d="M10814 16582c20,0 42,-4 66,-13 24,-8 47,-19 69,-34 23,-15 44,-32 62,-52 19,-20 33,-41 42,-63l43 -209c-3,-23 -10,-45 -21,-66 -11,-21 -25,-39 -41,-54 -16,-15 -34,-27 -54,-36 -20,-9 -41,-13 -62,-13 -39,0 -75,9 -110,28 -34,19 -64,44 -90,75 -27,31 -48,66 -63,105 -15,39 -23,78 -23,117 0,29 4,57 13,84 8,26 20,49 36,68 17,20 36,35 58,46 22,11 47,17 75,17zm-53 105c-40,0 -77,-8 -109,-24 -32,-16 -59,-38 -81,-65 -22,-27 -39,-59 -51,-96 -11,-36 -17,-75 -17,-116 0,-58 11,-114 33,-169 23,-54 52,-102 88,-143 37,-42 80,-75 128,-100 49,-25 99,-38 152,-38 56,0 102,15 138,45 37,31 63,68 79,112l32 -144 122 0 -122 575c-1,3 -2,7 -2,9 -1,3 -1,6 -1,9 0,16 10,25 31,26l-23 106c-10,1 -19,3 -27,4 -8,1 -15,1 -21,1 -26,0 -46,-6 -59,-17 -14,-12 -20,-27 -20,-45 0,-15 4,-42 12,-80 -36,48 -80,85 -130,111 -51,26 -102,39 -152,39z"/>
  <path class="fil0" d="M12247 16687c-45,0 -84,-8 -119,-24 -35,-16 -64,-38 -89,-66 -24,-28 -43,-60 -55,-97 -13,-37 -19,-76 -19,-118 0,-58 12,-114 35,-168 23,-54 54,-101 93,-142 40,-41 86,-74 140,-99 54,-24 111,-37 172,-37 70,0 126,16 169,48 43,32 71,75 85,129l-126 37c-10,-34 -29,-61 -56,-80 -27,-19 -59,-28 -97,-28 -37,0 -73,8 -107,26 -35,17 -66,40 -93,69 -27,29 -48,64 -64,103 -17,40 -25,82 -25,127 0,30 4,59 13,85 8,27 20,49 35,68 16,19 34,34 56,45 21,11 45,17 71,17 20,0 40,-3 61,-9 21,-6 40,-14 58,-24 18,-11 34,-22 49,-36 15,-13 27,-28 35,-44l112 37c-15,26 -35,51 -59,73 -23,22 -50,41 -79,57 -29,16 -60,28 -93,38 -34,9 -68,13 -103,13z"/>
  <path class="fil0" d="M13142 16582c36,0 72,-9 106,-26 34,-18 65,-42 92,-71 28,-30 50,-64 66,-104 17,-39 25,-81 25,-125 0,-31 -4,-59 -12,-85 -9,-26 -20,-48 -36,-67 -15,-19 -34,-34 -55,-46 -22,-11 -46,-16 -72,-16 -35,0 -70,9 -105,26 -34,18 -65,42 -93,72 -27,30 -49,65 -66,105 -16,39 -25,81 -25,125 0,30 5,58 13,84 8,26 20,49 35,68 16,19 34,33 55,44 21,11 46,16 72,16zm-23 105c-45,0 -84,-8 -119,-24 -35,-16 -64,-38 -87,-65 -24,-27 -42,-59 -54,-96 -12,-36 -18,-76 -18,-117 0,-59 12,-115 35,-168 23,-54 54,-102 94,-143 40,-42 87,-75 140,-100 53,-25 109,-38 168,-38 45,0 84,8 119,25 35,16 64,38 88,65 24,27 43,59 55,96 13,37 19,77 19,118 0,58 -12,113 -35,167 -23,54 -55,101 -95,143 -40,42 -87,75 -140,100 -53,25 -110,37 -170,37z"/>
  <path class="fil0" d="M13913 15949l111 0 -33 155c37,-52 81,-92 133,-123 52,-30 105,-45 158,-45 54,0 95,16 123,46 28,31 43,74 45,131 43,-59 89,-103 139,-132 50,-30 103,-45 158,-45 60,0 101,16 125,49 24,32 36,75 36,128 0,37 -5,79 -15,127l-93 434 -122 0 86 -406c8,-39 13,-73 13,-101 0,-81 -34,-121 -100,-121 -24,0 -47,5 -70,14 -23,9 -45,22 -66,39 -22,18 -42,38 -60,62 -19,23 -35,49 -49,77l-91 436 -123 0 87 -406c8,-40 12,-74 12,-103 0,-79 -33,-119 -99,-119 -46,0 -91,17 -136,52 -44,35 -80,81 -108,138l-93 438 -122 0 154 -725z"/>
  <path class="fil0" d="M15930 16582c36,0 72,-9 106,-26 34,-18 65,-42 92,-71 27,-30 50,-64 66,-104 17,-39 25,-81 25,-125 0,-31 -4,-59 -12,-85 -9,-26 -20,-48 -36,-67 -15,-19 -34,-34 -55,-46 -22,-11 -46,-16 -72,-16 -35,0 -70,9 -105,26 -34,18 -65,42 -93,72 -27,30 -49,65 -66,105 -16,39 -25,81 -25,125 0,30 5,58 13,84 8,26 20,49 35,68 16,19 34,33 55,44 21,11 46,16 72,16zm-23 105c-45,0 -84,-8 -119,-24 -35,-16 -64,-38 -87,-65 -24,-27 -42,-59 -54,-96 -12,-36 -18,-76 -18,-117 0,-59 12,-115 35,-168 23,-54 54,-102 94,-143 40,-42 86,-75 140,-100 53,-25 109,-38 168,-38 45,0 84,8 119,25 35,16 64,38 88,65 24,27 43,59 55,96 13,37 19,77 19,118 0,58 -12,113 -35,167 -23,54 -55,101 -95,143 -40,42 -87,75 -140,100 -53,25 -110,37 -170,37z"/>
  <path class="fil0" d="M17269 16687c-56,0 -108,-9 -158,-27 -50,-18 -91,-44 -123,-78l70 -82c33,32 68,57 105,73 37,16 78,24 122,24 56,0 101,-12 135,-37 34,-25 52,-59 52,-100 0,-30 -14,-52 -41,-66 -28,-13 -69,-28 -125,-43 -34,-9 -64,-18 -89,-27 -25,-10 -45,-20 -62,-32 -17,-12 -29,-26 -38,-41 -8,-15 -12,-34 -12,-55 0,-41 9,-77 26,-109 18,-32 41,-59 70,-81 30,-22 63,-40 102,-52 38,-12 78,-18 120,-18 52,0 98,9 139,27 40,17 74,40 100,69l-71 74c-24,-27 -53,-47 -85,-61 -33,-13 -68,-20 -105,-20 -24,0 -47,3 -68,9 -20,5 -39,14 -55,25 -16,12 -29,26 -38,44 -10,18 -14,38 -14,61 0,26 11,45 32,57 22,12 57,24 105,37 38,11 72,21 101,31 29,10 53,22 73,35 19,14 34,29 43,46 10,17 15,38 15,62 0,38 -8,72 -24,103 -16,31 -39,58 -68,81 -28,23 -63,40 -103,53 -40,12 -84,18 -131,18z"/>
  <path class="fil0" d="M18282 16028c-39,0 -75,7 -107,20 -32,14 -60,31 -84,54 -23,22 -43,47 -59,75 -16,28 -29,57 -38,87 27,3 53,5 78,6 25,0 47,1 69,1 52,0 97,-4 132,-10 36,-7 65,-17 87,-30 22,-12 38,-27 48,-44 10,-17 15,-36 15,-56 0,-35 -13,-61 -39,-78 -25,-17 -59,-25 -102,-25zm-145 659c-46,0 -86,-7 -121,-23 -35,-16 -65,-38 -90,-65 -24,-28 -43,-61 -55,-98 -13,-37 -19,-76 -19,-119 0,-58 11,-114 33,-168 22,-54 53,-101 93,-142 40,-42 87,-74 141,-99 53,-24 111,-37 174,-37 72,0 129,17 173,50 44,32 66,81 66,146 0,74 -32,130 -96,167 -65,38 -164,57 -299,57 -23,0 -47,-1 -75,-2 -27,-1 -55,-3 -85,-5 -1,5 -1,11 -1,16l0 16c0,28 3,56 11,82 7,25 18,48 33,68 15,20 33,36 56,47 23,12 49,18 80,18 43,0 84,-11 125,-33 41,-22 73,-51 96,-88l98 29c-16,27 -37,52 -62,74 -25,22 -52,41 -82,57 -30,17 -61,29 -94,39 -33,9 -66,13 -100,13z"/>
  <path class="fil0" d="M18922 16687c-113,0 -169,-61 -169,-183 0,-32 5,-72 15,-121l93 -434 121 0 -87 411c-9,38 -13,70 -13,96 0,84 36,126 108,126 47,0 94,-16 141,-48 48,-32 88,-76 120,-131l96 -454 122 0 -122 575c-1,3 -1,7 -2,9 0,3 -1,6 -1,9 0,16 11,25 31,26l-22 106c-10,1 -19,3 -27,4 -8,1 -15,1 -22,1 -25,0 -44,-5 -57,-17 -13,-11 -19,-25 -19,-44 0,-8 1,-20 3,-34 2,-14 6,-36 12,-66 -42,55 -91,97 -147,126 -56,29 -114,43 -174,43z"/>
  <path class="fil0" d="M20290 15949l111 0 -33 155c37,-52 81,-92 133,-123 52,-30 105,-45 158,-45 54,0 95,16 123,46 28,31 44,74 45,131 43,-59 89,-103 139,-132 50,-30 103,-45 158,-45 60,0 101,16 125,49 25,32 37,75 37,128 0,37 -6,79 -16,127l-93 434 -122 0 86 -406c8,-39 13,-73 13,-101 0,-81 -34,-121 -100,-121 -23,0 -47,5 -70,14 -23,9 -45,22 -66,39 -22,18 -42,38 -60,62 -19,23 -35,49 -49,77l-91 436 -122 0 86 -406c8,-40 12,-74 12,-103 0,-79 -33,-119 -98,-119 -47,0 -92,17 -137,52 -44,35 -80,81 -108,138l-93 438 -122 0 154 -725z"/>
  <path class="fil0" d="M21709 16687c-113,0 -169,-61 -169,-183 0,-32 5,-72 15,-121l93 -434 121 0 -88 411c-8,38 -12,70 -12,96 0,84 36,126 108,126 46,0 93,-16 141,-48 48,-32 88,-76 120,-131l96 -454 122 0 -122 575c-1,3 -2,7 -2,9 -1,3 -1,6 -1,9 0,16 10,25 31,26l-23 106c-10,1 -19,3 -27,4 -8,1 -15,1 -21,1 -25,0 -44,-5 -57,-17 -13,-11 -20,-25 -20,-44 0,-8 1,-20 3,-34 2,-14 6,-36 13,-66 -42,55 -91,97 -147,126 -57,29 -115,43 -174,43z"/>
  <path class="fil0" d="M22595 15949l111 0 -33 155c38,-51 85,-91 143,-122 57,-30 116,-46 177,-46 59,0 100,16 123,47 24,31 36,72 36,124 0,20 -2,42 -5,64 -3,22 -7,45 -12,69l-92 434 -122 0 86 -406c9,-40 13,-74 13,-104 0,-79 -33,-118 -99,-118 -23,0 -47,5 -73,15 -25,9 -50,22 -74,39 -24,17 -46,37 -67,60 -20,23 -37,48 -51,76l-93 438 -122 0 154 -725z"/>
  <path class="fil0" d="M23701 16582c21,0 43,-4 66,-13 24,-8 47,-19 70,-34 22,-15 43,-32 62,-52 18,-20 32,-41 41,-63l43 -209c-3,-23 -9,-45 -21,-66 -11,-21 -24,-39 -41,-54 -16,-15 -34,-27 -54,-36 -20,-9 -40,-13 -61,-13 -39,0 -76,9 -110,28 -34,19 -65,44 -91,75 -26,31 -47,66 -63,105 -15,39 -22,78 -22,117 0,29 4,57 12,84 8,26 21,49 37,68 16,20 35,35 57,46 23,11 48,17 75,17zm-52 105c-41,0 -77,-8 -109,-24 -32,-16 -59,-38 -82,-65 -22,-27 -39,-59 -50,-96 -12,-36 -18,-75 -18,-116 0,-58 12,-114 34,-169 22,-54 51,-102 88,-143 36,-42 79,-75 128,-100 48,-25 99,-38 152,-38 55,0 101,15 138,45 36,31 62,68 78,112l93 -433 122 0 -183 864c-1,3 -1,7 -2,9 0,3 -1,6 -1,9 0,16 11,25 31,26l-22 106c-10,1 -19,3 -27,4 -8,1 -15,1 -22,1 -26,0 -45,-6 -59,-17 -13,-12 -20,-27 -20,-45 0,-9 1,-19 3,-31 2,-12 5,-28 10,-49 -37,48 -80,85 -131,111 -51,26 -101,39 -151,39z"/>
  <path class="fil0" d="M24672 16582c36,0 71,-9 105,-26 35,-18 65,-42 93,-71 27,-30 49,-64 66,-104 16,-39 25,-81 25,-125 0,-31 -4,-59 -13,-85 -8,-26 -20,-48 -35,-67 -15,-19 -34,-34 -56,-46 -21,-11 -45,-16 -71,-16 -35,0 -70,9 -105,26 -35,18 -66,42 -93,72 -27,30 -49,65 -66,105 -17,39 -25,81 -25,125 0,30 4,58 12,84 9,26 21,49 36,68 15,19 33,33 55,44 21,11 45,16 72,16zm-24 105c-44,0 -84,-8 -118,-24 -35,-16 -64,-38 -88,-65 -23,-27 -41,-59 -53,-96 -12,-36 -18,-76 -18,-117 0,-59 11,-115 34,-168 23,-54 55,-102 95,-143 40,-42 86,-75 139,-100 54,-25 110,-38 169,-38 44,0 84,8 119,25 34,16 64,38 88,65 24,27 42,59 55,96 12,37 18,77 18,118 0,58 -11,113 -34,167 -23,54 -55,101 -95,143 -41,42 -87,75 -141,100 -53,25 -109,37 -170,37z"/>
  <polygon class="fil0" points="25281,16674 25315,16518 25418,16518 25384,16674 "/>
  <path class="fil1" d="M15168 5722c-1997,327 -3548,1119 -4277,1509l0 0c-85,46 -88,166 -7,216l0 0c29,18 64,24 97,15l0 0c2671,-692 4731,-745 6133,-256l0 0c288,100 608,18 810,-211l0 0c376,-428 155,-1102 -401,-1224l0 0c-459,-100 -869,-133 -1229,-133l0 0c-456,0 -832,52 -1126,84l0 0z"/>
  <path class="fil2" d="M11627 7612c-127,29 -155,198 -44,267l0 0c24,15 53,23 81,22l0 0c1721,-42 2847,1085 3399,1989l0 0c63,104 209,117 290,26l0 0 1840 -2091c86,-98 49,-252 -73,-298l0 0c-604,-229 -1341,-344 -2198,-344l0 0c-957,0 -2063,143 -3295,429l0 0z"/>
  <path class="fil3" d="M15337 4344c-1828,371 -3719,1523 -5013,2574l0 0c-62,51 -56,149 13,191l0 0c36,22 81,24 118,4l0 0c467,-255 2612,-1382 4436,-1663l0 0c1724,-296 2744,-13 3527,267l0 0c290,104 613,20 816,-211l0 0 16 -18c395,-449 133,-1156 -460,-1240l0 0c-411,-58 -903,-102 -1455,-102 -604,0 -1280,53 -1998,198l0 0z"/>
  <path class="fil0" d="M7518 11939c1,11 -1,24 -3,39 -1,3 -1,6 -2,9l-31 205 -52 332c-11,61 -44,89 -105,89l-1605 0c-16,0 -27,15 -24,29 1,4 3,9 7,13l196 196c-1,2 -2,4 -3,6 -59,117 -99,284 -137,520 -24,153 -38,278 -40,379 -1,56 2,104 9,145 10,55 27,99 53,134 33,42 80,71 143,88 24,7 50,12 80,16 40,4 85,7 135,7 0,0 1,0 2,0l935 0c50,0 78,15 86,49 3,11 4,24 3,39l-45 269 -44 268c-1,10 -3,19 -5,27 -2,8 -5,15 -8,22 -17,40 -49,55 -103,68 -20,4 -41,9 -62,13 -62,13 -128,24 -195,33 -45,6 -90,11 -134,16 -90,8 -178,15 -259,18 -123,7 -229,8 -302,8 -192,0 -359,-8 -502,-26 -143,-18 -264,-46 -364,-87 -48,-20 -91,-43 -130,-69 -26,-17 -50,-35 -72,-56 -65,-59 -113,-131 -148,-219 -4,-11 -9,-23 -13,-35 -30,-89 -47,-192 -53,-313 0,-2 0,-5 0,-7 -6,-140 3,-302 25,-489 10,-94 23,-192 39,-298 32,-200 66,-376 106,-532 214,-838 584,-1062 1621,-1062 194,0 625,11 924,88 38,11 63,23 73,50 0,1 0,2 0,3 2,5 3,9 4,15zm5685 1161l-930 0c61,-376 227,-487 553,-487 321,0 432,111 377,487zm-244 -1317c-1157,0 -1511,315 -1710,1599 -38,236 -60,439 -64,613 0,0 1,1 2,1 -25,767 282,980 1282,980 193,0 631,-11 952,-88 72,-17 105,-39 116,-117l88 -537c6,-60 -22,-88 -88,-88l-935 0c-343,0 -442,-101 -419,-459l1734 0c121,0 166,-34 182,-150l28 -171c199,-1268 -28,-1583 -1168,-1583zm10146 1660c-150,941 -277,1179 -1008,1179 -232,0 -503,-17 -791,-55l306 -1914 0 0 58 -372 765 0c764,0 819,227 670,1162zm-615 -1516c-310,0 -570,11 -769,33l6 -40 0 0 24 -152c1,0 1,0 1,0l93 -589c11,-55 -11,-77 -67,-60l-271 60c-39,11 -66,34 -72,72l-25 157 0 0 -541 3397c-6,55 11,77 66,83 498,77 725,88 1107,88 1029,0 1267,-304 1461,-1527 194,-1224 50,-1522 -1013,-1522zm-6631 99l-33 194c-5,44 -33,66 -77,66l-617 1 -37 239 1 1 -283 1785c-38,249 17,310 310,310l299 0c50,0 72,16 67,66l-28 183c-11,44 -39,66 -83,77 -105,23 -266,28 -304,28 -382,0 -764,-28 -676,-581l498 -3144c6,-38 34,-61 72,-72l272 -60c55,-17 77,5 66,60l-117 745 -5 30 615 0c49,0 66,22 60,72zm2987 0l-449 2801c-5,55 -33,61 -83,72 -442,77 -869,77 -1129,77 -913,0 -1206,-122 -1029,-1262l271 -1688c11,-50 44,-72 89,-72l249 0c49,0 66,28 61,72l-16 96 -62 398 -188 1189c-138,863 66,913 614,913l858 0 410 -2596c11,-50 33,-72 83,-72l260 0c44,0 66,22 61,72zm7169 1423c-150,935 -294,1173 -1019,1173 -725,0 -797,-238 -647,-1173 149,-936 293,-1168 1018,-1168 725,0 797,232 648,1168zm-592 -1522c-1019,0 -1284,304 -1478,1522 -188,1223 -28,1527 990,1527 1024,0 1285,-304 1478,-1527 194,-1218 28,-1522 -990,-1522zm-4553 315c-5,50 -38,72 -83,66l-481 0c-321,0 -493,50 -537,316l-360 2280c-5,50 -33,72 -83,72l-260 0c-44,0 -66,-22 -61,-72l377 -2363c94,-581 647,-587 891,-587 132,0 481,17 570,50 44,17 61,33 55,78l-28 160zm-8359 -847l370 -424c15,-15 28,-28 70,-28l321 0c43,0 52,13 61,28l236 424c13,18 6,40 -21,52l-124 57c-21,12 -40,15 -55,0l-309 -230 -382 230c-21,15 -39,12 -57,0l-107 -57c-21,-12 -21,-34 -3,-52zm-7966 520l-89 537c-11,61 -50,89 -111,89l-681 0c-22,0 -33,27 -17,42l186 187 -174 1099c-39,238 50,277 271,277l205 0c66,0 94,28 89,83l-89 576c-17,71 -55,99 -116,110 -244,44 -410,61 -559,61 -521,0 -941,-22 -819,-758l464 -2972c12,-61 39,-72 100,-89l830 -210c61,-17 83,28 72,88l-127 797 476 0c66,0 94,28 89,83zm6236 1240l-277 1733c-11,60 -44,88 -99,88l-803 0c-55,0 -72,-28 -61,-88l227 -1434c116,-769 83,-814 -415,-814l-583 0c-22,0 -33,27 -17,43l192 191 -323 2014c-5,60 -38,88 -94,88l-808 0c-55,0 -77,-28 -66,-88l463 -2923c0,0 1,0 1,0l113 -719c11,-61 39,-72 99,-89l831 -210c61,-17 83,28 72,88l-119 746 -1 0 -9 57c172,-17 382,-28 531,-28 1096,0 1318,238 1146,1345z"/>
  <path class="fil0" d="M27044 11522c-14,33 -34,61 -58,85 -25,24 -54,42 -87,55 -33,13 -69,20 -108,20 -39,0 -76,-7 -109,-21 -34,-14 -62,-33 -87,-57 -24,-24 -42,-52 -56,-85 -14,-33 -20,-69 -20,-107 0,-38 6,-73 20,-105 14,-33 32,-61 56,-86 25,-24 53,-42 87,-56 33,-13 70,-20 109,-20 39,0 76,7 109,20 34,14 63,32 87,56 24,25 44,53 57,86 14,32 21,68 21,106 0,40 -7,76 -21,109zm33 -229c-16,-36 -37,-68 -65,-94 -28,-27 -60,-48 -98,-63 -38,-15 -79,-23 -123,-23 -44,0 -85,8 -122,23 -38,15 -70,36 -98,63 -27,26 -48,58 -64,94 -15,37 -23,76 -23,119 0,43 8,83 23,120 16,36 37,68 64,95 28,27 60,48 98,63 37,15 78,23 122,23 44,0 85,-8 123,-23 38,-15 70,-36 98,-63 28,-27 49,-59 65,-95 15,-37 23,-77 23,-120 0,-43 -8,-82 -23,-119z"/>
  <path class="fil0" d="M26716 11417l0 -142 101 0c18,0 33,7 46,20 12,13 19,30 19,51 0,21 -6,38 -17,51 -10,13 -26,20 -46,20l-103 0zm197 -1c14,-21 22,-44 22,-70 0,-15 -3,-29 -9,-43 -5,-15 -13,-28 -23,-39 -10,-11 -22,-21 -36,-28 -13,-6 -29,-10 -45,-10l-160 0 0 373 54 0 0 -135 84 0 85 135 61 0 -91 -143c24,-6 43,-19 58,-40z"/>
 </g>
</svg>
